<?xml version="1.0" standalone="no"?>
<!DOCTYPE svg PUBLIC "-//W3C//DTD SVG 20010904//EN"
 "http://www.w3.org/TR/2001/REC-SVG-20010904/DTD/svg10.dtd">
<svg version="1.0" xmlns="http://www.w3.org/2000/svg"
 width="200.000000pt" height="200.000000pt" viewBox="0 0 200.000000 200.000000"
 preserveAspectRatio="xMidYMid meet">

<g transform="translate(0.000000,200.000000) scale(0.100000,-0.100000)"
fill="#000000" stroke="none">
<path d="M936 1563 c-33 -9 -95 -52 -111 -77 -23 -34 -44 -149 -36 -188 12
-53 38 -93 82 -131 34 -30 52 -37 104 -42 76 -9 129 12 191 73 72 70 78 156
20 254 -42 69 -107 110 -179 114 -29 2 -61 0 -71 -3z m116 -104 l15 -61 -25
-9 c-14 -5 -26 -8 -27 -7 -2 2 -20 33 -40 71 l-37 67 50 0 49 0 15 -61z m-113
-31 c35 -69 36 -74 18 -81 -7 -3 -34 17 -60 43 l-47 47 21 27 c11 14 24 26 29
26 5 0 22 -28 39 -62z m193 0 c-15 -15 -19 -11 -27 27 l-7 30 23 -22 c18 -18
21 -25 11 -35z m-242 -103 c0 -10 -40 -35 -55 -35 -8 0 -6 76 2 83 8 9 53 -32
53 -48z m280 35 c0 -11 -2 -20 -5 -20 -2 0 -9 9 -15 20 -9 16 -8 20 5 20 8 0
15 -9 15 -20z m-41 -41 c43 -43 43 -55 5 -93 -21 -22 -29 -15 -64 53 l-29 58
22 11 c12 6 23 11 23 11 1 1 20 -17 43 -40z m-96 -75 l35 -65 -25 -10 c-13 -5
-35 -9 -47 -9 -21 0 -24 5 -29 67 -5 64 1 82 25 83 4 0 22 -30 41 -66z m-109
4 c9 -35 7 -68 -4 -68 -15 0 -60 50 -60 66 0 11 17 20 46 23 7 0 14 -9 18 -21z"/>
<path d="M500 955 c0 -98 1 -105 20 -105 19 0 20 7 20 105 0 98 -1 105 -20
105 -19 0 -20 -7 -20 -105z"/>
<path d="M580 955 l0 -105 25 0 25 0 0 105 0 105 -25 0 -25 0 0 -105z"/>
<path d="M107 1043 c-4 -3 -7 -48 -7 -100 l0 -93 75 0 c62 0 79 4 95 20 24 24
25 39 6 65 -10 14 -11 25 -5 38 14 25 1 57 -28 68 -28 10 -126 12 -136 2z
m121 -55 c3 -15 -4 -18 -37 -18 -35 0 -41 3 -41 21 0 17 5 20 37 17 27 -2 39
-8 41 -20z m9 -74 c8 -21 -13 -34 -54 -34 -29 0 -33 3 -33 25 0 23 4 25 40 25
28 0 43 -5 47 -16z"/>
<path d="M670 950 l0 -100 25 0 c23 0 25 4 25 40 l0 40 45 0 45 0 0 -40 c0
-36 3 -40 25 -40 l25 0 0 100 0 100 -25 0 c-22 0 -25 -4 -25 -40 l0 -40 -45 0
-45 0 0 40 c0 36 -2 40 -25 40 l-25 0 0 -100z"/>
<path d="M945 998 c-38 -10 -55 -33 -55 -75 0 -74 96 -104 148 -47 27 31 28
63 2 96 -23 29 -53 38 -95 26z m46 -38 c41 -22 8 -91 -35 -74 -23 9 -25 62 -3
76 15 10 15 10 38 -2z"/>
<path d="M1356 1003 c-3 -4 -24 -6 -46 -5 l-40 2 0 -105 0 -105 25 0 c22 0 25
4 25 35 0 32 2 34 23 26 28 -11 81 9 91 34 9 24 7 64 -4 85 -10 19 -64 43 -74
33z m21 -41 c22 -14 20 -67 -3 -76 -42 -16 -76 50 -36 73 21 13 24 13 39 3z"/>
<path d="M325 990 c-11 -17 6 -32 30 -26 26 7 55 -1 55 -15 0 -5 -15 -9 -34
-9 -38 0 -66 -21 -66 -49 0 -30 22 -40 88 -40 l62 1 0 52 c0 74 -18 96 -80 96
-27 0 -52 -4 -55 -10z m85 -90 c0 -6 -7 -13 -15 -16 -20 -8 -48 3 -40 16 8 13
55 13 55 0z"/>
<path d="M1107 988 c-48 -37 -34 -117 24 -137 42 -14 101 11 110 49 7 32 -8
78 -31 90 -26 14 -83 12 -103 -2z m77 -34 c9 -8 16 -22 16 -29 0 -15 -27 -45
-40 -45 -13 0 -40 30 -40 45 0 15 27 45 40 45 5 0 16 -7 24 -16z"/>
<path d="M1482 977 c-62 -66 12 -152 106 -123 35 11 20 31 -20 28 -22 -1 -40
3 -48 13 -11 13 -5 15 44 15 53 0 56 1 56 25 0 61 -93 90 -138 42z m88 -22
c11 -13 7 -15 -24 -15 -34 0 -44 8 -29 23 11 12 40 8 53 -8z"/>
<path d="M1650 924 c0 -72 1 -74 24 -74 23 0 25 4 28 53 3 45 6 52 26 55 13 2
22 10 22 22 0 15 -8 18 -50 18 l-50 1 0 -75z"/>
<path d="M1774 979 c-28 -31 -4 -60 59 -74 43 -9 22 -28 -23 -21 -28 4 -39 2
-43 -8 -8 -21 2 -26 54 -26 89 0 112 72 29 89 -50 10 -52 34 -4 29 31 -2 39 1
42 15 5 27 -88 24 -114 -4z"/>
</g>
</svg>
